<svg width="20" height="20" viewBox="0 0 20 20" fill="none" xmlns="http://www.w3.org/2000/svg">
<path d="M17.5 16.6667C17.5 16.8877 17.4122 17.0996 17.2559 17.2559C17.0996 17.4122 16.8877 17.5 16.6667 17.5H14.1667C13.9457 17.5 13.7337 17.4122 13.5774 17.2559C13.4211 17.0996 13.3333 16.8877 13.3333 16.6667V14.1667C13.3333 13.9457 13.4211 13.7337 13.5774 13.5774C13.7337 13.4211 13.9457 13.3333 14.1667 13.3333H16.6667C16.8877 13.3333 17.0996 13.4211 17.2559 13.5774C17.4122 13.7337 17.5 13.9457 17.5 14.1667V16.6667ZM17.5 11.25C17.5 11.471 17.4122 11.683 17.2559 11.8393C17.0996 11.9955 16.8877 12.0833 16.6667 12.0833H14.1667C13.9457 12.0833 13.7337 11.9955 13.5774 11.8393C13.4211 11.683 13.3333 11.471 13.3333 11.25V8.75C13.3333 8.52899 13.4211 8.31703 13.5774 8.16074C13.7337 8.00446 13.9457 7.91667 14.1667 7.91667H16.6667C16.8877 7.91667 17.0996 8.00446 17.2559 8.16074C17.4122 8.31703 17.5 8.52899 17.5 8.75V11.25ZM17.5 5.83333C17.5 6.05435 17.4122 6.26631 17.2559 6.42259C17.0996 6.57887 16.8877 6.66667 16.6667 6.66667H14.1667C13.9457 6.66667 13.7337 6.57887 13.5774 6.42259C13.4211 6.26631 13.3333 6.05435 13.3333 5.83333V3.33333C13.3333 3.11232 13.4211 2.90036 13.5774 2.74408C13.7337 2.5878 13.9457 2.5 14.1667 2.5H16.6667C16.8877 2.5 17.0996 2.5878 17.2559 2.74408C17.4122 2.90036 17.5 3.11232 17.5 3.33333V5.83333ZM12.0833 16.6667C12.0833 16.8877 11.9955 17.0996 11.8393 17.2559C11.683 17.4122 11.471 17.5 11.25 17.5H8.75C8.52899 17.5 8.31703 17.4122 8.16074 17.2559C8.00446 17.0996 7.91667 16.8877 7.91667 16.6667V14.1667C7.91667 13.9457 8.00446 13.7337 8.16074 13.5774C8.31703 13.4211 8.52899 13.3333 8.75 13.3333H11.25C11.471 13.3333 11.683 13.4211 11.8393 13.5774C11.9955 13.7337 12.0833 13.9457 12.0833 14.1667V16.6667ZM12.0833 11.25C12.0833 11.471 11.9955 11.683 11.8393 11.8393C11.683 11.9955 11.471 12.0833 11.25 12.0833H8.75C8.52899 12.0833 8.31703 11.9955 8.16074 11.8393C8.00446 11.683 7.91667 11.471 7.91667 11.25L7.91667 8.75C7.91667 8.52899 8.00446 8.31703 8.16074 8.16074C8.31703 8.00446 8.52899 7.91667 8.75 7.91667L11.25 7.91667C11.471 7.91667 11.683 8.00446 11.8393 8.16074C11.9955 8.31703 12.0833 8.52899 12.0833 8.75V11.25ZM12.0833 5.83333C12.0833 6.05435 11.9955 6.26631 11.8393 6.42259C11.683 6.57887 11.471 6.66667 11.25 6.66667L8.75 6.66667C8.52899 6.66667 8.31703 6.57887 8.16074 6.42259C8.00446 6.26631 7.91667 6.05435 7.91667 5.83333V3.33333C7.91667 3.11232 8.00446 2.90036 8.16074 2.74408C8.31703 2.5878 8.52899 2.5 8.75 2.5L11.25 2.5C11.471 2.5 11.683 2.5878 11.8393 2.74408C11.9955 2.90036 12.0833 3.11232 12.0833 3.33333V5.83333ZM6.66667 16.6667C6.66667 16.8877 6.57887 17.0996 6.42259 17.2559C6.26631 17.4122 6.05435 17.5 5.83333 17.5H3.33333C3.11232 17.5 2.90036 17.4122 2.74408 17.2559C2.5878 17.0996 2.5 16.8877 2.5 16.6667V14.1667C2.5 13.9457 2.5878 13.7337 2.74408 13.5774C2.90036 13.4211 3.11232 13.3333 3.33333 13.3333H5.83333C6.05435 13.3333 6.26631 13.4211 6.42259 13.5774C6.57887 13.7337 6.66667 13.9457 6.66667 14.1667V16.6667ZM6.66667 11.25C6.66667 11.471 6.57887 11.683 6.42259 11.8393C6.26631 11.9955 6.05435 12.0833 5.83333 12.0833H3.33333C3.11232 12.0833 2.90036 11.9955 2.74408 11.8393C2.5878 11.683 2.5 11.471 2.5 11.25L2.5 8.75C2.5 8.52899 2.5878 8.31703 2.74408 8.16074C2.90036 8.00446 3.11232 7.91667 3.33333 7.91667H5.83333C6.05435 7.91667 6.26631 8.00446 6.42259 8.16074C6.57887 8.31703 6.66667 8.52899 6.66667 8.75L6.66667 11.25ZM6.66667 5.83333C6.66667 6.05435 6.57887 6.26631 6.42259 6.42259C6.26631 6.57887 6.05435 6.66667 5.83333 6.66667H3.33333C3.11232 6.66667 2.90036 6.57887 2.74408 6.42259C2.5878 6.26631 2.5 6.05435 2.5 5.83333V3.33333C2.5 3.11232 2.5878 2.90036 2.74408 2.74408C2.90036 2.5878 3.11232 2.5 3.33333 2.5H5.83333C6.05435 2.5 6.26631 2.5878 6.42259 2.74408C6.57887 2.90036 6.66667 3.11232 6.66667 3.33333V5.83333Z" fill="#333333"/>
</svg>
