<svg width="60" height="60" viewBox="0 0 60 60" fill="none" xmlns="http://www.w3.org/2000/svg">
<path d="M40.1512 6.135C40.8543 6.83823 41.2492 7.79188 41.2492 8.78625C41.2492 9.78061 40.8543 10.7343 40.1512 11.4375L21.5887 30L40.1512 48.5625C40.8343 49.2698 41.2123 50.217 41.2038 51.2003C41.1952 52.1835 40.8008 53.124 40.1056 53.8193C39.4103 54.5146 38.4697 54.909 37.4865 54.9175C36.5033 54.9261 35.556 54.5481 34.8487 53.865L13.635 32.6512C12.932 31.948 12.537 30.9944 12.537 30C12.537 29.0056 12.932 28.052 13.635 27.3487L34.8487 6.135C35.552 5.43198 36.5056 5.03705 37.5 5.03705C38.4944 5.03705 39.448 5.43198 40.1512 6.135Z" fill="white"/>
</svg>
