<svg width="60" height="60" viewBox="0 0 60 60" fill="none" xmlns="http://www.w3.org/2000/svg">
<path d="M19.8488 6.135C19.1457 6.83823 18.7508 7.79188 18.7508 8.78625C18.7508 9.78061 19.1457 10.7343 19.8488 11.4375L38.4113 30L19.8488 48.5625C19.1657 49.2698 18.7877 50.217 18.7962 51.2003C18.8048 52.1835 19.1992 53.124 19.8944 53.8193C20.5897 54.5146 21.5303 54.909 22.5135 54.9175C23.4967 54.9261 24.444 54.5481 25.1513 53.865L46.365 32.6512C47.068 31.948 47.463 30.9944 47.463 30C47.463 29.0056 47.068 28.052 46.365 27.3487L25.1513 6.135C24.448 5.43198 23.4944 5.03705 22.5 5.03705C21.5056 5.03705 20.552 5.43198 19.8488 6.135Z" fill="white"/>
</svg>
